<svg width="128" height="33" viewBox="0 0 128 33" fill="none" xmlns="http://www.w3.org/2000/svg">
<path d="M112.967 0.0148312C112.855 0.0489037 112.786 0.0892071 112.648 0.2038C112.213 0.569274 111.927 1.29094 111.831 2.26968C111.802 2.56396 111.813 3.26088 111.85 3.5613C111.905 3.99806 112.053 4.4843 112.219 4.77854C112.294 4.90868 112.295 4.91173 112.261 4.93961C112.053 5.13159 111.636 5.57145 111.365 5.89052C110.371 7.05513 109.776 8.26929 109.459 9.77458C109.313 10.4746 109.266 10.9609 109.266 11.7878C109.266 12.0852 109.273 12.3887 109.28 12.4599C109.291 12.5591 109.291 12.5931 109.279 12.5931C109.271 12.5931 109.13 12.5003 108.967 12.3888C108.224 11.8808 107.845 11.7352 107.469 11.8157C107.002 11.9179 106.742 12.3547 106.677 13.1445C106.634 13.6741 106.726 14.3401 106.947 15.0803C107.048 15.4241 107.364 16.1737 107.547 16.5051C107.629 16.6538 107.766 16.9077 107.852 17.0657C108.051 17.4374 108.381 17.9949 108.574 18.2922C108.657 18.4193 108.724 18.5338 108.723 18.5432C108.722 18.5525 108.665 18.6701 108.597 18.8064C108.362 19.271 108.091 19.9556 107.888 20.5998C107.045 23.2697 106.744 26.6675 107.12 29.2816C107.466 31.6883 108.317 33.0914 109.369 32.9954C110.056 32.9303 110.748 32.2582 111.391 31.0347C111.579 30.6755 111.919 29.8608 112.073 29.3962C112.649 27.6741 112.995 25.7166 113.083 23.6816C113.1 23.2976 113.1 22.3467 113.083 21.9967C113.076 21.8449 113.072 21.7179 113.073 21.7148C113.076 21.7117 113.153 21.752 113.245 21.8078C113.501 21.9626 113.641 22.0122 113.865 22.0307L114.069 22.0493V22.2538C114.069 22.8206 114.02 23.8179 113.926 25.125C113.887 25.6732 113.864 26.0666 113.869 26.1254C113.891 26.3794 113.991 26.4507 114.096 26.2834C114.162 26.1812 114.236 25.9458 114.366 25.4316C114.612 24.4529 114.813 23.3069 114.984 21.9069L115.058 21.2998L115.15 21.1511C115.354 20.8197 115.574 20.3458 115.763 19.8316C116.019 19.1379 116.213 18.4626 116.521 17.202C116.876 15.7431 116.965 15.3932 117.091 14.9472C117.443 13.702 117.867 12.6861 118.202 12.2834C118.537 11.8838 118.816 11.9799 119.105 12.5994C119.18 12.7604 119.347 13.2281 119.403 13.4326L119.425 13.5161L119.343 13.6339C118.75 14.4795 118.193 15.8454 117.817 17.3754C117.379 19.1564 117.172 21.2161 117.252 23.0002C117.353 25.3046 117.864 27.0237 118.665 27.7701C118.804 27.8971 119.044 28.0365 119.205 28.083C119.398 28.1356 119.806 28.1047 119.989 28.021C121.265 27.448 122.444 24.9609 122.98 21.7148C123.448 18.8808 123.32 15.9259 122.65 14.1542C122.145 12.8162 121.414 12.2307 120.609 12.5157C120.532 12.5436 120.464 12.5591 120.456 12.5529C120.447 12.5436 120.433 12.4755 120.423 12.4042C120.39 12.1348 120.287 11.5462 120.206 11.1529C119.963 9.99447 119.364 8.42723 118.782 7.43298C118.477 6.90952 118.228 6.5626 117.614 5.79758C117.293 5.40113 117.242 5.34536 117.187 5.34536C117.07 5.34536 116.984 5.55597 116.984 5.84093C116.984 5.93696 116.993 6.02676 117.007 6.08253C117.021 6.13211 117.273 6.72677 117.567 7.40512C117.882 8.12988 118.112 8.68121 118.126 8.74935C118.157 8.89492 118.169 9.02192 118.16 9.09625C118.144 9.20775 118.079 9.16441 117.843 8.88255C117.518 8.49228 117.271 8.28788 116.973 8.15773C116.792 8.07721 116.39 8.06174 116.234 8.1268C115.671 8.36526 115.212 8.98167 114.743 10.1339C114.423 10.9206 114.153 11.8002 113.881 12.9493C113.832 13.1538 113.791 13.3241 113.79 13.3272C113.79 13.3303 113.667 13.2591 113.516 13.1661C113.063 12.8874 112.807 12.6799 112.531 12.364C112.305 12.1038 112.191 11.921 112.058 11.6051C111.909 11.2489 111.862 11.0259 111.854 10.6232C111.84 9.8892 112.025 9.23874 112.513 8.30336C113.453 6.50069 114.574 5.64888 115.797 5.80691C115.949 5.82856 116.114 5.8564 116.163 5.87501C116.447 5.97104 116.544 5.94319 116.626 5.74799C116.68 5.61793 116.688 5.51263 116.657 5.33608C116.632 5.19051 116.53 4.97983 116.433 4.87766C116.29 4.71971 115.518 4.44096 114.945 4.33565C114.795 4.30776 114.67 4.27987 114.668 4.27677C114.665 4.27058 114.673 4.18697 114.685 4.08784C114.715 3.81526 114.724 3.43432 114.705 3.15555C114.672 2.65374 114.556 2.15822 114.361 1.66574C114.301 1.51707 114.231 1.30335 114.204 1.19495C114.128 0.885201 113.943 0.460855 113.812 0.299774C113.647 0.0984744 113.494 0.0148191 113.252 0.00244409C113.142 -0.00378465 113.013 0.00245618 112.967 0.0148312ZM118.7 8.53563C119.127 9.32239 119.644 10.7286 119.824 11.5927C119.889 11.9024 120.033 12.7604 120.033 12.8348C120.033 12.8471 119.985 12.8967 119.926 12.9493C119.867 12.9989 119.815 13.0454 119.81 13.0516C119.805 13.0578 119.792 13.0175 119.78 12.9648C119.743 12.7914 119.504 12.1068 119.403 11.8838C119.218 11.475 119.027 11.221 118.818 11.1034C118.659 11.0104 118.419 11.0321 118.252 11.1498C117.865 11.4254 117.492 12.1131 117.074 13.3148C116.814 14.0644 116.622 14.7582 116.229 16.3564C115.951 17.4808 115.717 18.348 115.559 18.8219C115.45 19.1471 115.223 19.7294 115.214 19.7046C115.211 19.6984 115.224 19.494 115.244 19.2494C115.285 18.7073 115.301 17.6852 115.276 17.1834C115.196 15.6223 114.88 14.5382 114.297 13.8228L114.187 13.6865L114.272 13.3334C114.39 12.841 114.602 12.0883 114.746 11.6485C114.905 11.159 115.231 10.3755 115.408 10.0626C115.662 9.61044 115.919 9.31925 116.2 9.16131C116.327 9.09003 116.372 9.08078 116.571 9.08078C116.757 9.08078 116.823 9.09316 116.934 9.15198C117.201 9.28827 117.459 9.52373 117.725 9.8737C117.894 10.0936 117.983 10.1587 118.121 10.1587C118.221 10.1618 118.248 10.1493 118.31 10.0781C118.412 9.96659 118.482 9.80247 118.532 9.56396C118.569 9.38741 118.575 9.31926 118.578 9.07766C118.584 8.75863 118.564 8.55733 118.503 8.29407L118.466 8.1299L118.503 8.18563C118.523 8.21661 118.612 8.37459 118.7 8.53563ZM108.143 12.9308C108.321 13.0206 108.447 13.098 109.051 13.5007C109.19 13.5936 109.365 13.702 109.44 13.7423C109.568 13.8073 109.581 13.8228 109.667 13.987C109.899 14.4361 110.176 14.7706 110.576 15.0803C110.91 15.3436 111.527 15.706 111.878 15.8485C112.527 16.1118 112.971 16.4277 113.175 16.7684C113.689 17.6232 113.973 18.8095 114.056 20.4294C114.062 20.5719 114.069 20.7732 114.069 20.8755V21.0582L113.885 21.0396C113.78 21.0303 113.638 20.9931 113.561 20.956C113.339 20.8538 112.98 20.5874 112.956 20.51C112.951 20.4914 112.927 20.3489 112.903 20.1972C112.737 19.1193 112.416 18.1405 112.033 17.5396C111.666 16.9666 111.153 16.6352 110.717 16.694L110.576 16.7126L110.523 16.6135C110.494 16.5577 110.389 16.344 110.289 16.1396C109.956 15.452 109.78 15.1763 109.572 15.006C109.459 14.9161 109.431 14.9069 109.304 14.9069C109.186 14.9069 109.143 14.9192 109.057 14.9874C108.749 15.229 108.585 15.737 108.6 16.4122C108.606 16.7281 108.643 16.9573 108.728 17.2267L108.79 17.425L108.652 17.202C108.259 16.5733 107.765 15.6534 107.566 15.1794C107.298 14.5382 107.107 13.8507 107.087 13.445C107.075 13.2219 107.089 13.1476 107.163 13.0423C107.286 12.8688 107.451 12.81 107.741 12.8254C107.914 12.8378 107.992 12.8564 108.143 12.9308ZM121.898 14.2502C122.492 14.5197 122.91 15.5883 123.054 17.1927C123.089 17.5891 123.104 18.4502 123.082 18.9117C122.984 20.956 122.476 22.9631 121.772 24.0905C121.037 25.2644 120.224 25.2706 119.703 24.106C119.398 23.4276 119.231 22.5356 119.188 21.3493C119.133 19.8471 119.369 18.0476 119.8 16.6909L119.863 16.4927L119.876 16.6104C119.957 17.3507 120.069 18.5772 120.247 20.6772C120.481 23.4338 120.473 23.3657 120.57 23.4772C120.674 23.5949 120.799 23.4989 120.851 23.2635L120.88 23.1334L120.864 21.2936C120.84 18.3232 120.799 16.818 120.702 15.2847L120.672 14.8263L120.745 14.7334C120.927 14.5043 121.214 14.2812 121.401 14.2254C121.51 14.1914 121.802 14.2068 121.898 14.2502ZM120.296 15.9135C120.342 16.7777 120.338 16.818 120.272 16.1922C120.215 15.6471 120.212 15.6223 120.234 15.5666C120.247 15.5325 120.261 15.5046 120.267 15.5046C120.27 15.5046 120.285 15.6905 120.296 15.9135ZM109.452 15.9723C109.551 16.0529 109.719 16.3131 109.883 16.6445C109.952 16.7839 110.012 16.9108 110.016 16.9264C110.02 16.9387 109.965 16.9976 109.894 17.0502C109.822 17.1029 109.703 17.2113 109.627 17.2856L109.489 17.425L109.301 17.0936C109.031 16.6197 108.982 16.4555 109.031 16.2046C109.048 16.121 109.073 16.0715 109.133 16.0002C109.23 15.8856 109.331 15.8763 109.452 15.9723ZM111.845 18.6484C112.028 18.7754 112.202 19.0015 112.356 19.3113C112.427 19.4538 112.608 19.937 112.597 19.9586C112.595 19.9648 112.427 19.7171 112.225 19.4042C111.62 18.4719 111.635 18.5029 111.845 18.6484ZM111.443 19.3856C112.015 20.2931 112.768 21.4423 112.834 21.5042C112.884 21.5476 112.886 21.5569 112.902 21.7582C112.925 22.0648 112.933 23.0621 112.915 23.4369C112.873 24.3166 112.777 25.0816 112.604 25.9272C112.248 27.6617 111.648 28.9967 110.998 29.5016C110.77 29.6812 110.696 29.706 110.432 29.7029C110.222 29.6998 110.185 29.6936 110.069 29.6192C109.596 29.3157 109.226 28.4453 109.057 27.2343C108.981 26.6892 108.959 26.364 108.951 25.7073C108.941 24.8246 108.981 24.1556 109.096 23.3254C109.253 22.1856 109.541 21.0458 109.854 20.3241L109.918 20.1693L110.253 20.5626C110.759 21.1511 111.03 21.4299 111.101 21.4299C111.255 21.433 111.362 20.9962 111.281 20.6865C111.267 20.6276 111.097 20.3024 110.858 19.875L110.462 19.1626L110.571 19.0326C110.678 18.9025 110.932 18.667 110.97 18.667C110.982 18.6639 111.194 18.9891 111.443 19.3856Z" fill="#FF5722"/>
<g clip-path="url(#clip0_8741:1039)">
<path fill-rule="evenodd" clip-rule="evenodd" d="M49.3738 7.36011H27.39V11.3576H49.3738V7.36011ZM49.3738 15.5677H27.39V19.5653H49.3738V15.5677ZM27.39 23.7753H49.3738V27.7728H27.39V23.7753Z" fill="#E1E1E6"/>
<path fill-rule="evenodd" clip-rule="evenodd" d="M79.7401 7.36011H101.724V11.3576H79.7401V7.36011ZM91.9458 27.7729V14.2459L91.8255 14.3335L89.6385 15.9341V27.7729H91.9458Z" fill="#E1E1E6"/>
<path d="M2.30737 27.7895H0V24.1922C0.00127281 19.732 1.02403 15.4549 2.84375 12.2999C4.66347 9.14489 7.13144 7.36978 9.70586 7.36426H23.1386V11.3618H9.70586C7.74486 11.3662 5.86487 12.7175 4.478 15.1194C3.09113 17.5214 2.31055 20.7781 2.30737 24.1755V27.7895Z" fill="#E1E1E6"/>
<path fill-rule="evenodd" clip-rule="evenodd" d="M54.6081 7.35803H52.3509V8.31508L52.35 8.31801C52.35 8.6309 52.3499 8.98818 52.3497 9.34485C52.3493 10.0571 52.3489 10.7669 52.35 11.1158V27.7895H54.6574V12.0626L56.6416 13.5783L74.3498 27.766V27.7728H74.3583L74.3792 27.7895H76.6583L76.6583 24.5711L76.6572 24.5704V17.4643L76.6532 17.4672V7.36424H74.3458V22.822L72.8793 21.7198L54.6081 7.35803Z" fill="#E1E1E6"/>
</g>
<defs>
<clipPath id="clip0_8741:1039">
<rect width="128" height="20.8421" fill="white" transform="translate(0 6.94739)"/>
</clipPath>
</defs>
</svg>
