<svg width="161" height="50" viewBox="0 0 161 50" fill="none" xmlns="http://www.w3.org/2000/svg">
<path d="M129.984 0.0224717C129.648 0.0740966 129.441 0.135162 129.023 0.308787C127.714 0.862537 126.851 1.95598 126.562 3.43891C126.476 3.88479 126.507 4.94072 126.62 5.39591C126.784 6.05766 127.23 6.7944 127.73 7.24021C127.957 7.4374 127.961 7.44201 127.859 7.48426C127.23 7.77513 125.976 8.44159 125.159 8.92502C122.162 10.6896 120.369 12.5292 119.416 14.81C118.974 15.8705 118.833 16.6074 118.833 17.8603C118.833 18.3109 118.853 18.7708 118.876 18.8787C118.908 19.0289 118.908 19.0805 118.872 19.0805C118.849 19.0805 118.423 18.9398 117.931 18.7708C115.692 18.0012 114.551 17.7806 113.418 17.9026C112.011 18.0575 111.226 18.7192 111.031 19.9159C110.902 20.7184 111.179 21.7274 111.843 22.849C112.148 23.3699 113.102 24.5056 113.652 25.0077C113.899 25.233 114.313 25.6178 114.571 25.8571C115.172 26.4203 116.165 27.265 116.747 27.7155C116.997 27.908 117.2 28.0816 117.196 28.0957C117.192 28.1098 117.02 28.2881 116.817 28.4946C116.11 29.1986 115.293 30.2357 114.68 31.2118C112.14 35.2571 111.234 40.4053 112.367 44.3661C113.41 48.0126 115.973 50.1384 119.142 49.993C121.213 49.8944 123.299 48.8761 125.237 47.0223C125.804 46.478 126.827 45.2437 127.292 44.5397C129.027 41.9305 130.07 38.9646 130.336 35.8812C130.387 35.2994 130.387 33.8586 130.336 33.3283C130.313 33.0984 130.301 32.906 130.305 32.9013C130.313 32.8966 130.547 32.9576 130.825 33.0421C131.594 33.2767 132.016 33.3517 132.692 33.3799L133.306 33.4081V33.7178C133.306 34.5766 133.157 36.0878 132.876 38.0682C132.759 38.8988 132.688 39.4948 132.704 39.584C132.77 39.9688 133.071 40.0768 133.388 39.8234C133.587 39.6684 133.81 39.3118 134.2 38.5328C134.943 37.0498 135.548 35.3134 136.064 33.1922L136.287 32.2724L136.564 32.0471C137.178 31.545 137.842 30.827 138.412 30.0479C139.182 28.9967 139.768 27.9736 140.694 26.0636C141.765 23.8533 142.034 23.323 142.413 22.6472C143.472 20.7606 144.75 19.2213 145.762 18.6112C146.77 18.0058 147.61 18.1513 148.481 19.09C148.708 19.3339 149.212 20.0426 149.38 20.3524L149.446 20.479L149.2 20.6574C147.41 21.9386 145.734 24.0081 144.601 26.3264C143.281 29.0248 142.655 32.1457 142.898 34.8488C143.202 38.3404 144.742 40.9449 147.157 42.0759C147.575 42.2684 148.297 42.4796 148.782 42.5499C149.364 42.6297 150.595 42.5828 151.146 42.4561C154.99 41.5879 158.542 37.8195 160.16 32.9013C161.57 28.6073 161.183 24.1301 159.163 21.4458C157.643 19.4185 155.44 18.5314 153.013 18.9632C152.783 19.0054 152.576 19.0289 152.552 19.0196C152.525 19.0055 152.482 18.9022 152.455 18.7943C152.353 18.386 152.044 17.4943 151.798 16.8983C151.068 15.1431 149.262 12.7685 147.508 11.2621C146.59 10.469 145.84 9.94334 143.988 8.78422C143.023 8.18353 142.866 8.09904 142.702 8.09904C142.351 8.09904 142.089 8.41814 142.089 8.84989C142.089 8.99539 142.116 9.13145 142.159 9.21595C142.202 9.29107 142.96 10.1921 143.847 11.2199C144.797 12.318 145.488 13.1533 145.531 13.2566C145.625 13.4772 145.66 13.6696 145.633 13.7822C145.586 13.9511 145.39 13.8855 144.679 13.4584C143.699 12.8671 142.956 12.5574 142.058 12.3602C141.511 12.2382 140.299 12.2148 139.831 12.3133C138.135 12.6746 136.752 13.6086 135.337 15.3543C134.372 16.5463 133.56 17.8791 132.739 19.6202C132.591 19.93 132.469 20.1881 132.466 20.1927C132.466 20.1975 132.094 20.0896 131.641 19.9487C130.274 19.5263 129.504 19.212 128.672 18.7333C127.992 18.339 127.648 18.0622 127.246 17.5835C126.796 17.0438 126.656 16.7059 126.632 16.0958C126.589 14.9836 127.148 13.9981 128.617 12.5808C131.45 9.84953 134.829 8.55891 138.514 8.79835C138.971 8.83116 139.467 8.87334 139.616 8.90153C140.471 9.04703 140.764 9.00483 141.011 8.70908C141.175 8.51202 141.198 8.35247 141.104 8.08497C141.03 7.8644 140.721 7.5452 140.428 7.39039C139.999 7.15107 137.674 6.72872 135.947 6.56916C135.494 6.52691 135.119 6.48464 135.111 6.47996C135.103 6.47058 135.126 6.34389 135.161 6.1937C135.251 5.7807 135.279 5.20351 135.224 4.78114C135.122 4.02082 134.775 3.27003 134.185 2.52384C134.005 2.29859 133.794 1.97478 133.712 1.81053C133.485 1.34121 132.927 0.698266 132.532 0.454204C132.036 0.149204 131.575 0.0224533 130.844 0.00370335C130.512 -0.00573414 130.125 0.00372166 129.984 0.0224717ZM147.262 12.9328C148.547 14.1248 150.106 16.2554 150.65 17.5647C150.845 18.0339 151.279 19.3339 151.279 19.4466C151.279 19.4653 151.134 19.5405 150.954 19.6202C150.778 19.6953 150.622 19.7657 150.607 19.7751C150.591 19.7845 150.552 19.7235 150.517 19.6437C150.403 19.3809 149.684 18.3437 149.38 18.0058C148.821 17.3864 148.247 17.0015 147.618 16.8233C147.137 16.6825 146.414 16.7153 145.91 16.8936C144.746 17.3113 143.621 18.3531 142.362 20.1739C141.577 21.3097 140.999 22.3609 139.815 24.7824C138.979 26.486 138.272 27.8 137.795 28.518C137.467 29.0108 136.783 29.8931 136.756 29.8555C136.748 29.8461 136.787 29.5364 136.845 29.1657C136.971 28.3445 137.017 26.7958 136.943 26.0355C136.701 23.6702 135.751 22.0276 133.993 20.9436L133.661 20.7371L133.919 20.2021C134.275 19.456 134.911 18.3156 135.345 17.6492C135.826 16.9076 136.806 15.7204 137.342 15.2464C138.107 14.5613 138.881 14.1201 139.729 13.8808C140.112 13.7728 140.245 13.7588 140.846 13.7588C141.405 13.7588 141.604 13.7775 141.94 13.8666C142.745 14.0731 143.523 14.4299 144.324 14.9601C144.832 15.2933 145.101 15.3919 145.516 15.3919C145.816 15.3966 145.898 15.3778 146.086 15.2699C146.395 15.1009 146.606 14.8522 146.754 14.4908C146.867 14.2233 146.883 14.1201 146.895 13.754C146.91 13.2707 146.852 12.9657 146.668 12.5668L146.555 12.318L146.668 12.4025C146.727 12.4494 146.996 12.6888 147.262 12.9328ZM115.45 19.5921C115.985 19.7281 116.364 19.8455 118.185 20.4556C118.603 20.5963 119.13 20.7606 119.357 20.8217C119.744 20.9202 119.783 20.9436 120.041 21.1924C120.74 21.8728 121.576 22.3797 122.78 22.849C123.788 23.2479 125.648 23.7969 126.702 24.0128C128.66 24.4117 129.996 24.8904 130.614 25.4066C132.161 26.7019 133.016 28.4993 133.267 30.9536C133.286 31.1696 133.306 31.4746 133.306 31.6295V31.9064L132.751 31.8782C132.434 31.8641 132.008 31.8078 131.774 31.7515C131.106 31.5966 130.024 31.193 129.953 31.0757C129.938 31.0475 129.863 30.8317 129.793 30.6018C129.293 28.9686 128.324 27.4856 127.171 26.5751C126.066 25.707 124.518 25.2049 123.206 25.2939L122.78 25.3221L122.619 25.172C122.533 25.0875 122.217 24.7636 121.916 24.4539C120.912 23.4121 120.381 22.9944 119.755 22.7363C119.416 22.6002 119.33 22.5861 118.947 22.5861C118.591 22.5861 118.462 22.6049 118.204 22.7082C117.274 23.0742 116.782 23.8439 116.825 24.8669C116.845 25.3456 116.954 25.6929 117.212 26.1011L117.399 26.4015L116.981 26.0636C115.798 25.111 114.309 23.7172 113.711 22.9991C112.902 22.0276 112.328 20.9859 112.265 20.3712C112.23 20.0332 112.273 19.9206 112.496 19.761C112.867 19.4982 113.363 19.409 114.239 19.4325C114.758 19.4513 114.993 19.4794 115.45 19.5921ZM156.897 21.5912C158.687 21.9996 159.949 23.6186 160.382 26.0496C160.488 26.6502 160.531 27.9548 160.464 28.6541C160.171 31.7514 158.64 34.7925 156.518 36.5008C154.303 38.2794 151.853 38.2887 150.282 36.5242C149.364 35.4964 148.86 34.1448 148.731 32.3474C148.567 30.0714 149.278 27.3448 150.575 25.2893L150.767 24.9889L150.806 25.1673C151.048 26.2889 151.388 28.1473 151.923 31.3291C152.627 35.5058 152.603 35.4026 152.896 35.5715C153.209 35.7498 153.588 35.6044 153.744 35.2477L153.83 35.0506L153.783 32.263C153.709 27.7625 153.588 25.4817 153.295 23.1586L153.205 22.4641L153.424 22.3233C153.971 21.9761 154.838 21.6382 155.401 21.5537C155.729 21.5021 156.608 21.5255 156.897 21.5912ZM152.072 24.1114C152.208 25.4207 152.197 25.4817 151.998 24.5337C151.826 23.7077 151.818 23.6702 151.884 23.5857C151.923 23.5341 151.966 23.4919 151.982 23.4919C151.994 23.4919 152.037 23.7735 152.072 24.1114ZM119.392 24.2005C119.693 24.3225 120.197 24.7168 120.693 25.2189C120.9 25.4301 121.08 25.6225 121.092 25.646C121.103 25.6648 120.939 25.7539 120.724 25.8336C120.51 25.9135 120.15 26.0777 119.92 26.1903L119.505 26.4015L118.939 25.8994C118.126 25.1814 117.978 24.9326 118.126 24.5525C118.177 24.4258 118.251 24.3507 118.431 24.2428C118.724 24.0691 119.029 24.055 119.392 24.2005ZM126.605 28.2552C127.156 28.4476 127.679 28.7902 128.144 29.2596C128.359 29.4754 128.902 30.2075 128.871 30.2404C128.863 30.2498 128.359 29.8743 127.75 29.4003C125.925 27.9877 125.972 28.0347 126.605 28.2552ZM125.394 29.3722C127.117 30.7472 129.387 32.4883 129.586 32.5821C129.734 32.6478 129.742 32.6619 129.789 32.967C129.859 33.4316 129.883 34.9426 129.828 35.5105C129.703 36.8433 129.414 38.0024 128.89 39.2836C127.82 41.9117 126.011 43.9344 124.053 44.6993C123.366 44.9715 123.143 45.0091 122.346 45.0044C121.713 44.9996 121.604 44.9903 121.252 44.8776C119.826 44.4178 118.712 43.099 118.204 41.2641C117.974 40.4381 117.907 39.9454 117.884 38.9505C117.853 37.613 117.974 36.5993 118.322 35.3416C118.794 33.6146 119.662 31.8876 120.603 30.7941L120.799 30.5595L121.807 31.1555C123.331 32.0471 124.147 32.4696 124.362 32.4696C124.827 32.4742 125.147 31.8124 124.905 31.3432C124.862 31.254 124.35 30.7613 123.631 30.1136L122.436 29.0343L122.764 28.8372C123.088 28.6401 123.854 28.2834 123.967 28.2834C124.003 28.2786 124.643 28.7714 125.394 29.3722Z" fill="#FF5722"/>
<g clip-path="url(#clip0_8741:1039)">
<path fill-rule="evenodd" clip-rule="evenodd" d="M41.6591 20.2375H23.1103V22.5392H41.6591V20.2375ZM41.6591 24.9632H23.1103V27.2648H41.6591V24.9632ZM23.1103 29.6887H41.6591V31.9903H23.1103V29.6887Z" fill="#E1E1E6"/>
<path fill-rule="evenodd" clip-rule="evenodd" d="M67.2807 20.2375H85.8296V22.5392H67.2807V20.2375ZM77.5793 31.9903V24.2021L77.4778 24.2525L75.6324 25.1741V31.9903H77.5793Z" fill="#E1E1E6"/>
<path fill-rule="evenodd" clip-rule="evenodd" d="M89.6177 20.3335L96.4651 23.7463L93.9783 24.9871L89.4228 22.7167V20.2375L89.6177 20.3335ZM107.972 29.4824V31.9616L100.947 28.4624L103.432 27.2216L107.972 29.4824ZM107.972 22.7191V20.2399L107.779 20.3335L98.7063 24.8623H98.7043L96.2195 26.1055L89.4228 29.4967V31.9783L98.7063 27.3439L101.191 26.1031L107.972 22.7191Z" fill="#DC1637"/>
<path d="M1.94684 32H0V29.9288C0.00107394 27.3608 0.864026 24.8982 2.39941 23.0817C3.9348 21.2652 6.01715 20.2432 8.18932 20.24H19.5232V22.5416H8.18932C6.53473 22.5441 4.94848 23.3221 3.77831 24.7051C2.60814 26.088 1.94953 27.9631 1.94684 29.9192V32Z" fill="#E1E1E6"/>
<path fill-rule="evenodd" clip-rule="evenodd" d="M46.0756 20.2365H44.1711V20.7875L44.1703 20.7892L44.17 21.3803C44.1697 21.7904 44.1694 22.1991 44.1703 22.4V32H46.1172V22.9451L47.7916 23.8179L62.7326 31.9865V31.9904H62.7398L62.7574 32H64.6805V30.147L64.6795 30.1466V26.0552L64.6761 26.0569V20.24H62.7293V29.1399L61.4921 28.5054L46.0756 20.2365Z" fill="#E1E1E6"/>
</g>
<defs>
<clipPath id="clip0_8741:1039">
<rect width="108" height="12" fill="white" transform="translate(0 20)"/>
</clipPath>
</defs>
</svg>
